<?xml version="1.0" encoding="iso-8859-1"?>
<!-- Generator: Adobe Illustrator 19.0.1, SVG Export Plug-In . SVG Version: 6.00 Build 0)  -->
<svg version="1.1" id="&#x421;&#x43B;&#x43E;&#x439;_1"
	 xmlns="http://www.w3.org/2000/svg" xmlns:xlink="http://www.w3.org/1999/xlink" x="0px" y="0px" viewBox="0 0 175.488 156.129"
	 enable-background="new 0 0 175.488 156.129" xml:space="preserve">
<g>
	<defs>
		<rect id="SVGID_1_" width="175.488" height="156.129"/>
	</defs>
	<clipPath id="SVGID_2_">
		<use xlink:href="#SVGID_1_"  overflow="visible"/>
	</clipPath>
	<path clip-path="url(#SVGID_2_)" fill="#FFFFFF" d="M120.01,58.049l0.871-2.567c0.24-0.869,0.416-1.755,0.626-2.629
		c0.316-1.769,0.525-3.555,0.545-5.345c0.015-0.446,0.059-0.893,0.051-1.34l-0.03-1.342c-0.015-0.447-0.014-0.897-0.004-1.348
		c0.008-0.451-0.066-0.895-0.095-1.345c-0.116-1.802-0.427-3.598-0.885-5.365c-0.283-0.865-0.545-1.745-0.905-2.585
		c-0.383-0.831-0.805-1.645-1.214-2.464c-1.809-3.187-4.196-6.043-7.003-8.399c-2.804-2.366-6.085-4.142-9.534-5.337
		c-0.868-0.287-1.723-0.614-2.629-0.766l-1.338-0.287c-0.223-0.046-0.444-0.1-0.668-0.139l-0.68-0.077
		c-0.908-0.086-1.805-0.244-2.712-0.268l-1.123-0.004c1.462-0.3,2.848-0.966,3.998-1.959c1.582-1.331,2.617-3.361,2.739-5.517
		c0.117-2.142-0.572-4.415-2.083-6.164c-1.488-1.758-3.865-2.847-6.25-2.8c-1.186,0.028-2.368,0.285-3.447,0.757
		c-1.08,0.475-2.037,1.183-2.825,2.022c-1.571,1.695-2.344,4.007-2.174,6.185c0.155,2.185,1.209,4.217,2.781,5.587
		c1.125,0.993,2.51,1.653,3.954,1.927c-0.179,0.038-0.361,0.064-0.539,0.112c-0.732,0.211-1.424,0.533-2.085,0.916
		c-0.649,0.403-1.245,0.892-1.77,1.457c-0.514,0.574-0.967,1.205-1.368,1.889c-0.374,0.694-0.674,1.449-0.825,2.247
		c-0.139,0.798-0.162,1.622-0.066,2.446c0.118,0.817,0.325,1.641,0.693,2.404c0.381,0.755,0.888,1.451,1.502,2.04
		c0.629,0.573,1.341,1.053,2.109,1.406c0.774,0.345,1.603,0.532,2.422,0.635c1.655,0.139,3.284-0.186,4.676-0.894
		c1.396-0.694,2.56-1.748,3.367-3.01c0.397-0.638,0.692-1.327,0.897-2.037c0.133-0.512,0.198-1.034,0.234-1.558
		c-0.286,2.708-2.222,5.172-4.776,5.945c-0.683,0.201-1.384,0.287-2.073,0.298c-0.694-0.026-1.369-0.145-2.004-0.343
		c-1.272-0.413-2.351-1.151-3.226-2.045c-0.844-0.921-1.558-1.97-1.949-3.207c-0.179-0.618-0.265-1.269-0.284-1.933
		c0.022-0.658,0.063-1.341,0.254-2.005c0.724-2.663,3.532-4.661,6.412-4.622c0.037-0.001,0.074,0.003,0.11,0.002
		c0.175-0.003,0.348-0.019,0.522-0.033c3.404,0.95,6.522,2.143,9.357,3.679c2.955,1.662,5.61,3.617,7.891,5.894
		c2.286,2.269,4.187,4.84,5.694,7.604c0.34,0.711,0.645,1.433,1.039,2.118l0.545,1.054c0.214,0.341,0.407,0.692,0.661,1.028
		c0.855,1.387,2.057,2.785,2.912,4.394c0.224,0.398,0.474,0.802,0.634,1.221c0.161,0.42,0.308,0.846,0.431,1.278
		c0.138,0.432,0.224,0.87,0.325,1.31c0.052,0.44,0.084,0.884,0.072,1.327c0.002,0.444-0.009,0.888-0.04,1.331
		c-0.005,0.445-0.08,0.883-0.151,1.321l-0.206,1.315c-0.071,0.438-0.121,0.879-0.253,1.305c-0.77,3.465-2.276,6.77-4.376,9.617
		c-4.161,5.761-10.635,9.544-17.274,10.775c-3.325,0.619-6.727,0.675-9.955,0.021l-0.604-0.11L88.318,72.9
		c-0.394-0.11-0.782-0.246-1.168-0.372c-0.78-0.218-1.518-0.576-2.248-0.904c-0.365-0.167-0.722-0.348-1.075-0.527l-1.015-0.641
		l-0.996-0.626c-0.328-0.208-0.626-0.479-0.935-0.711c-0.608-0.488-1.229-0.918-1.77-1.469l-0.827-0.771l-0.408-0.38
		c-0.123-0.145-0.249-0.284-0.376-0.419l-0.756-0.807c-0.257-0.26-0.524-0.501-0.742-0.799c-0.452-0.573-0.956-1.078-1.405-1.631
		c-0.429-0.571-0.877-1.118-1.335-1.652c-0.388-0.592-0.827-1.14-1.26-1.696c-0.387-0.586-0.783-1.164-1.268-1.703
		c-0.238-0.273-0.448-0.563-0.678-0.847c-0.229-0.283-0.497-0.553-0.75-0.836c-0.993-1.132-2.207-2.288-3.207-3.647
		c-0.249-0.338-0.571-0.669-0.768-1.034l-0.633-1.105c-0.223-0.373-0.417-0.758-0.603-1.149c-0.168-0.392-0.268-0.797-0.401-1.203
		c-0.543-1.629-0.596-3.334-0.536-5.025c0.076-1.69,0.253-3.401,0.65-5.076c0.69-3.383,2.174-6.628,4.193-9.527
		c1.993-2.93,4.646-5.435,7.665-7.392c-6.338,3.465-11.377,9.373-13.826,16.323c-1.239,3.466-1.857,7.186-1.717,10.905
		c0.088,3.719,0.851,7.46,2.346,10.926c0.407,0.849,0.766,1.726,1.221,2.554c0.482,0.812,0.948,1.638,1.452,2.439l1.694,2.287
		c0.618,0.719,1.266,1.417,1.901,2.125c2.663,2.715,5.808,5,9.296,6.606c0.438,0.197,0.859,0.43,1.31,0.596l1.356,0.49l1.356,0.487
		l1.397,0.357c0.936,0.224,1.865,0.468,2.825,0.562l1.427,0.193l0.713,0.094l0.719,0.028c3.827,0.294,7.688-0.266,11.305-1.405
		c7.276-2.272,13.398-7.337,17.157-13.583c0.434-0.804,0.912-1.582,1.302-2.402L120.01,58.049z M91.687,16.25
		c-0.967-0.034-1.92-0.253-2.789-0.643c-0.868-0.393-1.633-0.978-2.258-1.663c-1.248-1.391-1.824-3.245-1.657-4.978
		c0.158-1.74,1.015-3.314,2.263-4.379c1.246-1.072,2.849-1.646,4.441-1.597c1.589,0.033,3.152,0.553,4.463,1.575
		c1.308,1.011,2.251,2.625,2.355,4.401c0.135,1.762-0.461,3.618-1.699,5.048C95.569,15.445,93.627,16.302,91.687,16.25
		 M50.848,111.602h14.91v4.159H55.263v4.896h9.695v4.16h-9.695V134h-4.415V111.602z M59.019,148.298L56.065,156h1.005l0.767-2.159
		h3.266L61.919,156h0.999l-2.964-7.702H59.019z M58.138,153.03l1.198-3.282c0.046-0.125,0.088-0.297,0.123-0.515h0.022
		c0.04,0.236,0.079,0.408,0.118,0.515l1.209,3.282H58.138z M27.904,111.602h9.791v4.159h-2.688v14.079h2.688V134h-9.791v-4.16h2.687
		v-14.079h-2.687V111.602z M51.004,148.298h0.902V156h-0.902V148.298z M43.602,151.983h2.589v3.491
		c-0.774,0.437-1.633,0.655-2.578,0.655c-1.099,0-1.989-0.354-2.667-1.063s-1.018-1.647-1.018-2.815
		c0-1.192,0.377-2.171,1.131-2.935c0.754-0.765,1.709-1.147,2.865-1.147c0.838,0,1.542,0.136,2.112,0.408v0.999
		c-0.623-0.394-1.362-0.591-2.213-0.591c-0.864,0-1.571,0.298-2.122,0.892c-0.551,0.594-0.828,1.364-0.828,2.31
		c0,0.974,0.256,1.739,0.769,2.296c0.512,0.557,1.206,0.835,2.084,0.835c0.602,0,1.122-0.12,1.562-0.36v-2.159h-1.686V151.983z
		 M34.78,153.242c-0.085-0.127-0.17-0.241-0.256-0.341c-0.086-0.1-0.176-0.187-0.271-0.26c-0.095-0.074-0.207-0.139-0.336-0.197
		v-0.021c0.261-0.068,0.497-0.164,0.706-0.287c0.21-0.124,0.389-0.274,0.538-0.449c0.148-0.175,0.263-0.375,0.343-0.599
		c0.081-0.224,0.121-0.47,0.121-0.738c0-0.344-0.059-0.644-0.177-0.9c-0.119-0.256-0.282-0.47-0.492-0.642
		c-0.209-0.172-0.456-0.3-0.741-0.384c-0.284-0.084-0.595-0.126-0.931-0.126h-2.299V156h0.902v-3.276h0.741
		c0.168,0,0.32,0.02,0.454,0.061c0.134,0.042,0.259,0.107,0.376,0.197c0.117,0.089,0.23,0.205,0.341,0.346
		c0.111,0.141,0.226,0.312,0.344,0.513L35.432,156h1.074l-1.445-2.315C34.957,153.517,34.864,153.369,34.78,153.242 M33.738,151.805
		c-0.193,0.068-0.401,0.102-0.626,0.102h-1.225v-2.793h1.235c0.505,0,0.891,0.116,1.158,0.347c0.266,0.231,0.4,0.552,0.4,0.964
		c0,0.229-0.04,0.436-0.118,0.62c-0.079,0.185-0.189,0.34-0.328,0.468C34.094,151.64,33.929,151.737,33.738,151.805 M138.11,127.313
		c0-1.952-1.823-2.496-4.127-2.784l-1.76-0.192c-4.288-0.512-7.583-2.208-7.583-6.143c0-4.192,3.647-6.752,8.287-6.816h0.256
		c3.167,0,6.335,1.536,8.639,3.712l-2.88,2.655c-1.663-1.343-4.127-2.208-5.759-2.208h-0.256c-1.472,0-3.872,0.545-3.872,2.496
		c0,1.504,1.728,1.952,3.744,2.208l1.792,0.192c4.543,0.544,7.935,2.24,7.935,6.88c0,4.256-3.744,6.879-8.703,6.911h-0.192
		c-4.48,0-7.744-2.112-9.504-4.511l2.88-2.656c0.992,1.408,3.296,3.008,6.624,3.008h0.192
		C136.414,130.032,138.11,129.008,138.11,127.313 M11.979,155.184h3.18V156h-4.082v-7.702h3.91v0.816h-3.008v2.562h2.782v0.811
		h-2.782V155.184z M3.674,151.983h2.589v3.491c-0.773,0.437-1.633,0.655-2.578,0.655c-1.099,0-1.988-0.354-2.667-1.063
		C0.34,154.357,0,153.419,0,152.251c0-1.192,0.377-2.171,1.131-2.935c0.754-0.765,1.709-1.147,2.865-1.147
		c0.838,0,1.542,0.136,2.112,0.408v0.999c-0.623-0.394-1.362-0.591-2.213-0.591c-0.863,0-1.57,0.298-2.122,0.892
		c-0.551,0.594-0.827,1.364-0.827,2.31c0,0.974,0.256,1.739,0.768,2.296c0.512,0.557,1.206,0.835,2.084,0.835
		c0.602,0,1.122-0.12,1.563-0.36v-2.159H3.674V151.983z M0.064,111.602h16.703v4.159h-6.144V134H6.208v-18.239H0.064V111.602z
		 M22.9,148.169c-1.154,0-2.065,0.369-2.735,1.107c-0.669,0.737-1.003,1.726-1.003,2.964c0,1.153,0.328,2.09,0.985,2.809
		c0.657,0.72,1.531,1.08,2.624,1.08c1.117,0,2.009-0.365,2.675-1.096c0.666-0.73,0.999-1.724,0.999-2.981
		c0-1.156-0.325-2.092-0.975-2.809C24.82,148.527,23.963,148.169,22.9,148.169 M24.769,154.491
		c-0.487,0.551-1.153,0.827-1.998,0.827c-0.792,0-1.434-0.289-1.926-0.868c-0.492-0.578-0.738-1.341-0.738-2.29
		s0.252-1.716,0.757-2.299c0.505-0.584,1.162-0.876,1.971-0.876c0.83,0,1.483,0.278,1.955,0.833
		c0.473,0.555,0.709,1.341,0.709,2.358C25.499,153.168,25.255,153.94,24.769,154.491 M164.987,148.298h0.902V156h-1.106
		l-3.964-6.139c-0.101-0.154-0.183-0.315-0.247-0.483h-0.033c0.029,0.164,0.043,0.517,0.043,1.058V156h-0.902v-7.702h1.171
		l3.856,6.042c0.162,0.251,0.265,0.423,0.312,0.516h0.021c-0.036-0.222-0.053-0.6-0.053-1.133V148.298z M151.622,148.298
		L148.668,156h1.004l0.769-2.159h3.265l0.817,2.159h0.999l-2.965-7.702H151.622z M150.742,153.03l1.197-3.282
		c0.047-0.125,0.088-0.297,0.124-0.515h0.021c0.039,0.236,0.079,0.408,0.119,0.515l1.208,3.282H150.742z M143.75,153.242
		c-0.085-0.127-0.17-0.241-0.255-0.341c-0.086-0.1-0.176-0.187-0.271-0.26c-0.096-0.074-0.207-0.139-0.336-0.197v-0.021
		c0.261-0.068,0.497-0.164,0.706-0.287c0.21-0.124,0.389-0.274,0.537-0.449c0.149-0.175,0.264-0.375,0.344-0.599
		c0.081-0.224,0.121-0.47,0.121-0.738c0-0.344-0.059-0.644-0.178-0.9c-0.118-0.256-0.281-0.47-0.491-0.642
		c-0.209-0.172-0.456-0.3-0.741-0.384c-0.284-0.084-0.596-0.126-0.932-0.126h-2.299V156h0.903v-3.276h0.741
		c0.168,0,0.319,0.02,0.454,0.061c0.134,0.042,0.259,0.107,0.376,0.197c0.116,0.089,0.23,0.205,0.341,0.346
		c0.11,0.141,0.226,0.312,0.344,0.513l1.289,2.159h1.074l-1.445-2.315C143.928,153.517,143.834,153.369,143.75,153.242
		 M142.708,151.805c-0.192,0.068-0.4,0.102-0.626,0.102h-1.224v-2.793h1.235c0.505,0,0.891,0.116,1.157,0.347
		c0.267,0.231,0.401,0.552,0.401,0.964c0,0.229-0.04,0.436-0.118,0.62c-0.079,0.185-0.189,0.34-0.328,0.468
		C143.065,151.64,142.9,151.737,142.708,151.805 M134.105,148.298h0.902v4.587c0,2.163-0.975,3.244-2.927,3.244
		c-1.869,0-2.803-1.04-2.803-3.121v-4.71h0.902v4.651c0,1.579,0.666,2.369,1.998,2.369c1.285,0,1.928-0.763,1.928-2.288V148.298z
		 M72.383,148.298h0.903V156h-1.107l-3.964-6.139c-0.099-0.154-0.182-0.315-0.247-0.483h-0.032c0.029,0.164,0.043,0.517,0.043,1.058
		V156h-0.902v-7.702h1.17l3.857,6.042c0.161,0.251,0.266,0.423,0.311,0.516h0.022c-0.035-0.222-0.054-0.6-0.054-1.133V148.298z
		 M175.489,148.298v0.816h-2.224V156h-0.902v-6.886h-2.219v-0.816H175.489z M175.262,122.801c0-6.304-5.12-11.423-11.424-11.423
		c-6.303,0-11.391,5.119-11.391,11.423c0,6.335,5.088,11.423,11.391,11.423C170.142,134.224,175.262,129.136,175.262,122.801
		 M156.863,122.801c0-4.288,3.071-7.264,6.975-7.264c3.936,0,7.008,2.976,7.008,7.264c0,4.32-3.072,7.264-7.008,7.264
		C159.934,130.065,156.863,127.121,156.863,122.801 M121.531,148.298L118.577,156h1.003l0.769-2.159h3.266l0.816,2.159h0.999
		l-2.965-7.702H121.531z M120.65,153.03l1.197-3.282c0.047-0.125,0.088-0.297,0.124-0.515h0.022
		c0.039,0.236,0.078,0.408,0.118,0.515l1.208,3.282H120.65z M94.875,155.184h3.18V156h-4.082v-7.702h3.91v0.816h-3.008v2.562h2.783
		v0.811h-2.783V155.184z M81.631,129.84H91.71V134H77.216v-22.398h4.415V129.84z M88.163,153.242
		c-0.083-0.127-0.168-0.241-0.254-0.341c-0.086-0.1-0.177-0.187-0.272-0.26c-0.095-0.074-0.207-0.139-0.336-0.197v-0.021
		c0.262-0.068,0.497-0.164,0.706-0.287c0.21-0.124,0.389-0.274,0.537-0.449c0.15-0.175,0.264-0.375,0.344-0.599
		c0.081-0.224,0.121-0.47,0.121-0.738c0-0.344-0.058-0.644-0.177-0.9c-0.118-0.256-0.282-0.47-0.492-0.642
		c-0.209-0.172-0.456-0.3-0.741-0.384c-0.284-0.084-0.595-0.126-0.932-0.126h-2.298V156h0.902v-3.276h0.741
		c0.169,0,0.319,0.02,0.454,0.061c0.134,0.042,0.26,0.107,0.376,0.197c0.116,0.089,0.231,0.205,0.341,0.346
		c0.111,0.141,0.226,0.312,0.344,0.513L88.816,156h1.074l-1.444-2.315C88.341,153.517,88.247,153.369,88.163,153.242
		 M87.121,151.805c-0.191,0.068-0.4,0.102-0.625,0.102h-1.225v-2.793h1.235c0.505,0,0.891,0.116,1.157,0.347
		c0.268,0.231,0.401,0.552,0.401,0.964c0,0.229-0.039,0.436-0.118,0.62c-0.078,0.185-0.188,0.34-0.327,0.468
		C87.479,151.64,87.313,151.737,87.121,151.805 M105.535,129.84v-14.079h-2.687v-4.159h9.791v4.159h-2.688v14.079h2.688V134h-9.791
		v-4.16H105.535z M106.706,153.293c0.11,0.222,0.165,0.476,0.165,0.763c0,0.379-0.075,0.701-0.223,0.964
		c-0.15,0.263-0.35,0.477-0.602,0.642c-0.253,0.164-0.544,0.283-0.873,0.357c-0.33,0.073-0.677,0.11-1.042,0.11
		c-0.122,0-0.272-0.01-0.451-0.029c-0.18-0.02-0.362-0.049-0.548-0.086c-0.186-0.038-0.362-0.085-0.529-0.14
		c-0.166-0.055-0.3-0.118-0.4-0.185v-1.064c0.122,0.108,0.267,0.204,0.438,0.29c0.17,0.086,0.349,0.158,0.537,0.218
		c0.188,0.059,0.376,0.104,0.567,0.137c0.189,0.032,0.365,0.048,0.526,0.048c0.555,0,0.97-0.103,1.243-0.309
		c0.274-0.206,0.411-0.502,0.411-0.889c0-0.207-0.046-0.388-0.137-0.542c-0.091-0.154-0.217-0.295-0.378-0.422
		c-0.162-0.127-0.352-0.249-0.573-0.365c-0.219-0.117-0.457-0.239-0.712-0.368c-0.268-0.136-0.518-0.274-0.752-0.414
		c-0.232-0.139-0.434-0.293-0.606-0.461c-0.172-0.169-0.308-0.359-0.405-0.572c-0.099-0.214-0.149-0.463-0.149-0.75
		c0-0.351,0.077-0.656,0.232-0.915c0.153-0.26,0.356-0.474,0.606-0.642c0.251-0.169,0.536-0.294,0.858-0.376
		c0.32-0.083,0.646-0.124,0.979-0.124c0.76,0,1.313,0.091,1.66,0.274v1.015c-0.455-0.315-1.039-0.473-1.751-0.473
		c-0.197,0-0.394,0.021-0.591,0.062c-0.197,0.042-0.373,0.108-0.526,0.202c-0.154,0.093-0.279,0.213-0.376,0.36
		s-0.145,0.325-0.145,0.537c0,0.196,0.037,0.367,0.11,0.51c0.073,0.143,0.182,0.274,0.325,0.392s0.318,0.233,0.524,0.344
		c0.206,0.111,0.443,0.233,0.712,0.365c0.275,0.136,0.537,0.279,0.784,0.43c0.247,0.15,0.464,0.317,0.649,0.499
		C106.45,152.869,106.597,153.071,106.706,153.293 M110.642,148.298h5.344v0.816h-2.224V156h-0.902v-6.886h-2.218V148.298z"/>
</g>
</svg>
